<svg xmlns="http://www.w3.org/2000/svg" width="1080" height="1080" viewBox="0 0 1080 1080" fill="none">
  <defs>
    <linearGradient id="bg" x1="80" y1="80" x2="1000" y2="1000" gradientUnits="userSpaceOnUse">
      <stop stop-color="#081f22"/>
      <stop offset="1" stop-color="#006f77"/>
    </linearGradient>
    <linearGradient id="accent" x1="360" y1="220" x2="720" y2="620" gradientUnits="userSpaceOnUse">
      <stop stop-color="#67f2ff"/>
      <stop offset="1" stop-color="#53d98c"/>
    </linearGradient>
    <filter id="softGlow" x="-20%" y="-20%" width="140%" height="140%">
      <feGaussianBlur stdDeviation="20" result="blur"/>
    </filter>
  </defs>

  <rect x="0" y="0" width="1080" height="1080" rx="80" fill="url(#bg)"/>
  <rect x="45" y="45" width="990" height="990" rx="55" stroke="rgba(255,255,255,0.10)" stroke-width="4"/>
  <circle cx="540" cy="370" r="190" fill="rgba(255,255,255,0.06)"/>
  <circle cx="540" cy="370" r="145" fill="#67f2ff" opacity="0.12" filter="url(#softGlow)"/>

  
  <g>
    <circle cx="540" cy="345" r="120" fill="url(#accent)"/>
    <circle cx="490" cy="325" r="14" fill="#F8F7F2"/>
    <circle cx="590" cy="325" r="14" fill="#F8F7F2"/>
    <path d="M480 390C500 410 520 420 540 420C560 420 580 410 600 390" stroke="#F8F7F2" stroke-width="18" stroke-linecap="round"/>
    <path d="M540 185V150" stroke="#86FFF5" stroke-width="18" stroke-linecap="round"/>
    <path d="M438 218L412 194" stroke="#86FFF5" stroke-width="18" stroke-linecap="round"/>
    <path d="M642 218L668 194" stroke="#86FFF5" stroke-width="18" stroke-linecap="round"/>
    <path d="M540 465V540" stroke="#F8F7F2" stroke-width="24" stroke-linecap="round"/>
    <path d="M480 540H600" stroke="#F8F7F2" stroke-width="24" stroke-linecap="round"/>
  </g>


  <text x="540" y="790" text-anchor="middle" font-family="Arial, Helvetica, sans-serif" font-size="74" font-weight="500" fill="#F5F4EF" letter-spacing="-1">AI</text>
  <text x="540" y="865" text-anchor="middle" font-family="Arial, Helvetica, sans-serif" font-size="48" font-weight="400" fill="#EAE7DD" letter-spacing="4">CANDIDATE MATCHING</text>
</svg>