<svg xmlns="http://www.w3.org/2000/svg" width="1080" height="1080" viewBox="0 0 1080 1080" fill="none">
  <defs>
    <linearGradient id="bg" x1="80" y1="80" x2="1000" y2="1000" gradientUnits="userSpaceOnUse">
      <stop stop-color="#1c1338"/>
      <stop offset="1" stop-color="#5d1bb3"/>
    </linearGradient>
    <linearGradient id="accent" x1="360" y1="220" x2="720" y2="620" gradientUnits="userSpaceOnUse">
      <stop stop-color="#a89bff"/>
      <stop offset="1" stop-color="#47c8ff"/>
    </linearGradient>
    <filter id="softGlow" x="-20%" y="-20%" width="140%" height="140%">
      <feGaussianBlur stdDeviation="20" result="blur"/>
    </filter>
  </defs>

  <rect x="0" y="0" width="1080" height="1080" rx="80" fill="url(#bg)"/>
  <rect x="45" y="45" width="990" height="990" rx="55" stroke="rgba(255,255,255,0.10)" stroke-width="4"/>
  <circle cx="540" cy="370" r="190" fill="rgba(255,255,255,0.06)"/>
  <circle cx="540" cy="370" r="145" fill="#a89bff" opacity="0.12" filter="url(#softGlow)"/>

  
  <g>
    <circle cx="540" cy="354" r="170" stroke="#F4BF46" stroke-width="20" opacity="0.95"/>
    <path d="M540 150L560 190L604 196L572 226L580 270L540 248L500 270L508 226L476 196L520 190L540 150Z" fill="#F3DA77"/>
  </g>

  <path d="M540 220L690 280V430C690 545 628 640 540 688C452 640 390 545 390 430V280L540 220Z" fill="url(#accent)"/>
  
  <path d="M475 380L525 430L622 333" stroke="#F8F7F2" stroke-width="34" stroke-linecap="round" stroke-linejoin="round"/>
  <path d="M540 255V305" stroke="#F8F7F2" stroke-width="24" stroke-linecap="round"/>



  <text x="540" y="790" text-anchor="middle" font-family="Arial, Helvetica, sans-serif" font-size="74" font-weight="500" fill="#F5F4EF" letter-spacing="-1">ENHANCED</text>
  <text x="540" y="865" text-anchor="middle" font-family="Arial, Helvetica, sans-serif" font-size="48" font-weight="400" fill="#EAE7DD" letter-spacing="4">VERIFICATION BUNDLE</text>
</svg>