<svg xmlns="http://www.w3.org/2000/svg" width="1080" height="1080" viewBox="0 0 1080 1080" fill="none">
  <defs>
    <linearGradient id="bg" x1="80" y1="80" x2="1000" y2="1000" gradientUnits="userSpaceOnUse">
      <stop stop-color="#2c1d07"/>
      <stop offset="1" stop-color="#8f5a00"/>
    </linearGradient>
    <linearGradient id="accent" x1="360" y1="220" x2="720" y2="620" gradientUnits="userSpaceOnUse">
      <stop stop-color="#ffd15c"/>
      <stop offset="1" stop-color="#ff9b33"/>
    </linearGradient>
    <filter id="softGlow" x="-20%" y="-20%" width="140%" height="140%">
      <feGaussianBlur stdDeviation="20" result="blur"/>
    </filter>
  </defs>

  <rect x="0" y="0" width="1080" height="1080" rx="80" fill="url(#bg)"/>
  <rect x="45" y="45" width="990" height="990" rx="55" stroke="rgba(255,255,255,0.10)" stroke-width="4"/>
  <circle cx="540" cy="370" r="190" fill="rgba(255,255,255,0.06)"/>
  <circle cx="540" cy="370" r="145" fill="#ffd15c" opacity="0.12" filter="url(#softGlow)"/>

  
  <g>
    <path d="M540 175L580 275L680 315L580 355L540 455L500 355L400 315L500 275L540 175Z" fill="url(#accent)"/>
    <circle cx="680" cy="245" r="18" fill="#F8F7F2"/>
    <circle cx="390" cy="390" r="14" fill="#F8F7F2" opacity="0.9"/>
    <circle cx="650" cy="430" r="12" fill="#F8F7F2" opacity="0.85"/>
  </g>


  <text x="540" y="790" text-anchor="middle" font-family="Arial, Helvetica, sans-serif" font-size="74" font-weight="500" fill="#F5F4EF" letter-spacing="-1">HIGHLIGHT</text>
  <text x="540" y="865" text-anchor="middle" font-family="Arial, Helvetica, sans-serif" font-size="48" font-weight="400" fill="#EAE7DD" letter-spacing="4">COLOUR BOOST</text>
</svg>