<svg xmlns="http://www.w3.org/2000/svg" width="1080" height="1080" fill="none" viewBox="0 0 1080 1080"><defs><linearGradient id="bg" x1="80" x2="1000" y1="80" y2="1000" gradientUnits="userSpaceOnUse"><stop stop-color="#081f22"/><stop offset="1" stop-color="#006f77"/></linearGradient><linearGradient id="accent" x1="360" x2="720" y1="220" y2="620" gradientUnits="userSpaceOnUse"><stop stop-color="#67f2ff"/><stop offset="1" stop-color="#53d98c"/></linearGradient><filter id="softGlow" width="140%" height="140%" x="-20%" y="-20%"><feGaussianBlur result="blur" stdDeviation="20"/></filter></defs><rect width="1080" height="1080" x="0" y="0" fill="url(#bg)" rx="80"/><rect width="990" height="990" x="45" y="45" stroke="rgba(255,255,255,0.10)" stroke-width="4" rx="55"/><circle cx="540" cy="370" r="190" fill="rgba(255,255,255,0.06)"/><circle cx="540" cy="370" r="145" fill="#67f2ff" filter="url(#softGlow)" opacity=".12"/><g><circle cx="540" cy="345" r="120" fill="url(#accent)"/><circle cx="490" cy="325" r="14" fill="#F8F7F2"/><circle cx="590" cy="325" r="14" fill="#F8F7F2"/><path stroke="#F8F7F2" stroke-linecap="round" stroke-width="18" d="M480 390C500 410 520 420 540 420C560 420 580 410 600 390"/><path stroke="#86FFF5" stroke-linecap="round" stroke-width="18" d="M540 185V150"/><path stroke="#86FFF5" stroke-linecap="round" stroke-width="18" d="M438 218L412 194"/><path stroke="#86FFF5" stroke-linecap="round" stroke-width="18" d="M642 218L668 194"/><path stroke="#F8F7F2" stroke-linecap="round" stroke-width="24" d="M540 465V540"/><path stroke="#F8F7F2" stroke-linecap="round" stroke-width="24" d="M480 540H600"/></g><text x="540" y="790" fill="#F5F4EF" font-family="Arial, Helvetica, sans-serif" font-size="74" font-weight="500" letter-spacing="-1" text-anchor="middle">AI</text><text x="540" y="865" fill="#EAE7DD" font-family="Arial, Helvetica, sans-serif" font-size="48" font-weight="400" letter-spacing="4" text-anchor="middle">CANDIDATE MATCHING</text></svg>