<svg xmlns="http://www.w3.org/2000/svg" width="1080" height="1080" fill="none" viewBox="0 0 1080 1080"><defs><linearGradient id="bg" x1="80" x2="1000" y1="80" y2="1000" gradientUnits="userSpaceOnUse"><stop stop-color="#1c1338"/><stop offset="1" stop-color="#5d1bb3"/></linearGradient><linearGradient id="accent" x1="360" x2="720" y1="220" y2="620" gradientUnits="userSpaceOnUse"><stop stop-color="#a89bff"/><stop offset="1" stop-color="#47c8ff"/></linearGradient><filter id="softGlow" width="140%" height="140%" x="-20%" y="-20%"><feGaussianBlur result="blur" stdDeviation="20"/></filter></defs><rect width="1080" height="1080" x="0" y="0" fill="url(#bg)" rx="80"/><rect width="990" height="990" x="45" y="45" stroke="rgba(255,255,255,0.10)" stroke-width="4" rx="55"/><circle cx="540" cy="370" r="190" fill="rgba(255,255,255,0.06)"/><circle cx="540" cy="370" r="145" fill="#a89bff" filter="url(#softGlow)" opacity=".12"/><g><circle cx="540" cy="354" r="170" stroke="#F4BF46" stroke-width="20" opacity=".95"/><path fill="#F3DA77" d="M540 150L560 190L604 196L572 226L580 270L540 248L500 270L508 226L476 196L520 190L540 150Z"/></g><path fill="url(#accent)" d="M540 220L690 280V430C690 545 628 640 540 688C452 640 390 545 390 430V280L540 220Z"/><path stroke="#F8F7F2" stroke-linecap="round" stroke-linejoin="round" stroke-width="34" d="M475 380L525 430L622 333"/><path stroke="#F8F7F2" stroke-linecap="round" stroke-width="24" d="M540 255V305"/><text x="540" y="790" fill="#F5F4EF" font-family="Arial, Helvetica, sans-serif" font-size="74" font-weight="500" letter-spacing="-1" text-anchor="middle">ENHANCED</text><text x="540" y="865" fill="#EAE7DD" font-family="Arial, Helvetica, sans-serif" font-size="48" font-weight="400" letter-spacing="4" text-anchor="middle">VERIFICATION BUNDLE</text></svg>