<svg xmlns="http://www.w3.org/2000/svg" width="1080" height="1080" aria-labelledby="title desc" role="img" viewBox="0 0 1080 1080"><title id="title">Enhanced Trusted Employer</title><desc id="desc">Square verification badge for enhanced trusted employer</desc><defs><linearGradient id="bg2" x1="0" x2="1" y1="0" y2="1"><stop offset="0%" stop-color="#111827"/><stop offset="100%" stop-color="#4C1D95"/></linearGradient><linearGradient id="starRing" x1="0" x2="1" y1="0" y2="1"><stop offset="0%" stop-color="#FDE68A"/><stop offset="100%" stop-color="#F59E0B"/></linearGradient><linearGradient id="shield2" x1="0" x2="1" y1="0" y2="1"><stop offset="0%" stop-color="#A78BFA"/><stop offset="100%" stop-color="#22D3EE"/></linearGradient><filter id="shadow2" width="140%" height="140%" x="-20%" y="-20%"><feDropShadow dx="0" dy="16" flood-color="#000" flood-opacity=".32" stdDeviation="26"/></filter></defs><rect width="1080" height="1080" fill="url(#bg2)" rx="80"/><rect width="992" height="992" x="44" y="44" fill="none" stroke="#FFF" stroke-opacity=".08" stroke-width="4" rx="56"/><g filter="url(#shadow2)"><circle cx="540" cy="360" r="194" fill="#FFF" fill-opacity=".06"/><circle cx="540" cy="360" r="168" fill="none" stroke="url(#starRing)" stroke-width="18"/><path fill="url(#shield2)" d="M540 214 L680 270 V402 C680 527 600 630 540 663 C480 630 400 527 400 402 V270 Z"/><path fill="none" stroke="#FFF" stroke-linecap="round" stroke-linejoin="round" stroke-width="32" d="M476 405 L525 454 L616 360"/><path fill="#FDE68A" d="M540 145 L554 187 L598 187 L562 213 L575 255 L540 229 L505 255 L518 213 L482 187 L526 187 Z"/></g><text x="540" y="780" fill="#FFF" font-family="Inter, Arial, Helvetica, sans-serif" font-size="74" font-weight="800" letter-spacing="1" text-anchor="middle">TRUSTED</text><text x="540" y="850" fill="#F4E8FF" font-family="Inter, Arial, Helvetica, sans-serif" font-size="40" font-weight="600" letter-spacing="5" text-anchor="middle">ENHANCED EMPLOYER</text></svg>