<svg xmlns="http://www.w3.org/2000/svg" width="1080" height="1080" fill="none" viewBox="0 0 1080 1080"><defs><linearGradient id="bg" x1="80" x2="1000" y1="80" y2="1000" gradientUnits="userSpaceOnUse"><stop stop-color="#2c1d07"/><stop offset="1" stop-color="#8f5a00"/></linearGradient><linearGradient id="accent" x1="360" x2="720" y1="220" y2="620" gradientUnits="userSpaceOnUse"><stop stop-color="#ffd15c"/><stop offset="1" stop-color="#ff9b33"/></linearGradient><filter id="softGlow" width="140%" height="140%" x="-20%" y="-20%"><feGaussianBlur result="blur" stdDeviation="20"/></filter></defs><rect width="1080" height="1080" x="0" y="0" fill="url(#bg)" rx="80"/><rect width="990" height="990" x="45" y="45" stroke="rgba(255,255,255,0.10)" stroke-width="4" rx="55"/><circle cx="540" cy="370" r="190" fill="rgba(255,255,255,0.06)"/><circle cx="540" cy="370" r="145" fill="#ffd15c" filter="url(#softGlow)" opacity=".12"/><g><path fill="url(#accent)" d="M540 175L580 275L680 315L580 355L540 455L500 355L400 315L500 275L540 175Z"/><circle cx="680" cy="245" r="18" fill="#F8F7F2"/><circle cx="390" cy="390" r="14" fill="#F8F7F2" opacity=".9"/><circle cx="650" cy="430" r="12" fill="#F8F7F2" opacity=".85"/></g><text x="540" y="790" fill="#F5F4EF" font-family="Arial, Helvetica, sans-serif" font-size="74" font-weight="500" letter-spacing="-1" text-anchor="middle">HIGHLIGHT</text><text x="540" y="865" fill="#EAE7DD" font-family="Arial, Helvetica, sans-serif" font-size="48" font-weight="400" letter-spacing="4" text-anchor="middle">COLOUR BOOST</text></svg>