<svg xmlns="http://www.w3.org/2000/svg" width="1080" height="1080" fill="none" viewBox="0 0 1080 1080"><defs><linearGradient id="bg" x1="80" x2="1000" y1="80" y2="1000" gradientUnits="userSpaceOnUse"><stop stop-color="#1c1338"/><stop offset="1" stop-color="#5d1bb3"/></linearGradient><linearGradient id="accent" x1="360" x2="720" y1="220" y2="620" gradientUnits="userSpaceOnUse"><stop stop-color="#a89bff"/><stop offset="1" stop-color="#47c8ff"/></linearGradient><filter id="softGlow" width="140%" height="140%" x="-20%" y="-20%"><feGaussianBlur result="blur" stdDeviation="20"/></filter></defs><rect width="1080" height="1080" x="0" y="0" fill="url(#bg)" rx="80"/><rect width="990" height="990" x="45" y="45" stroke="rgba(255,255,255,0.10)" stroke-width="4" rx="55"/><circle cx="540" cy="370" r="190" fill="rgba(255,255,255,0.06)"/><circle cx="540" cy="370" r="145" fill="#a89bff" filter="url(#softGlow)" opacity=".12"/><g><rect width="220" height="110" x="380" y="300" fill="url(#accent)" opacity=".45" rx="28"/><rect width="240" height="125" x="440" y="250" fill="url(#accent)" opacity=".72" rx="30"/><rect width="280" height="145" x="400" y="200" fill="url(#accent)" rx="34"/><path stroke="#F8F7F2" stroke-linecap="round" stroke-width="26" d="M470 272H610"/><path stroke="#F8F7F2" stroke-linecap="round" stroke-width="26" d="M470 226H575" opacity=".85"/><path fill="#F6D66A" d="M630 180L647 213L683 218L657 244L663 280L630 262L597 280L603 244L577 218L613 213L630 180Z"/></g><text x="540" y="790" fill="#F5F4EF" font-family="Arial, Helvetica, sans-serif" font-size="74" font-weight="500" letter-spacing="-1" text-anchor="middle">PREMIUM</text><text x="540" y="865" fill="#EAE7DD" font-family="Arial, Helvetica, sans-serif" font-size="48" font-weight="400" letter-spacing="4" text-anchor="middle">JOB POST CREDITS</text></svg>