<svg xmlns="http://www.w3.org/2000/svg" width="1080" height="1080" viewBox="0 0 1080 1080" fill="none">
  <defs>
    <linearGradient id="bg" x1="80" y1="80" x2="1000" y2="1000" gradientUnits="userSpaceOnUse">
      <stop stop-color="#1c1338"/>
      <stop offset="1" stop-color="#5d1bb3"/>
    </linearGradient>
    <linearGradient id="accent" x1="360" y1="220" x2="720" y2="620" gradientUnits="userSpaceOnUse">
      <stop stop-color="#a89bff"/>
      <stop offset="1" stop-color="#47c8ff"/>
    </linearGradient>
    <filter id="softGlow" x="-20%" y="-20%" width="140%" height="140%">
      <feGaussianBlur stdDeviation="20" result="blur"/>
    </filter>
  </defs>

  <rect x="0" y="0" width="1080" height="1080" rx="80" fill="url(#bg)"/>
  <rect x="45" y="45" width="990" height="990" rx="55" stroke="rgba(255,255,255,0.10)" stroke-width="4"/>
  <circle cx="540" cy="370" r="190" fill="rgba(255,255,255,0.06)"/>
  <circle cx="540" cy="370" r="145" fill="#a89bff" opacity="0.12" filter="url(#softGlow)"/>

  
  <g>
    <rect x="380" y="300" width="220" height="110" rx="28" fill="url(#accent)" opacity="0.45"/>
    <rect x="440" y="250" width="240" height="125" rx="30" fill="url(#accent)" opacity="0.72"/>
    <rect x="400" y="200" width="280" height="145" rx="34" fill="url(#accent)"/>
    <path d="M470 272H610" stroke="#F8F7F2" stroke-width="26" stroke-linecap="round"/>
    <path d="M470 226H575" stroke="#F8F7F2" stroke-width="26" stroke-linecap="round" opacity="0.85"/>
    <path d="M630 180L647 213L683 218L657 244L663 280L630 262L597 280L603 244L577 218L613 213L630 180Z" fill="#F6D66A"/>
  </g>


  <text x="540" y="790" text-anchor="middle" font-family="Arial, Helvetica, sans-serif" font-size="74" font-weight="500" fill="#F5F4EF" letter-spacing="-1">PREMIUM</text>
  <text x="540" y="865" text-anchor="middle" font-family="Arial, Helvetica, sans-serif" font-size="48" font-weight="400" fill="#EAE7DD" letter-spacing="4">JOB POST CREDITS</text>
</svg>