<svg xmlns="http://www.w3.org/2000/svg" width="1080" height="1080" fill="none" viewBox="0 0 1080 1080"><defs><linearGradient id="bg" x1="80" x2="1000" y1="80" y2="1000" gradientUnits="userSpaceOnUse"><stop stop-color="#0b1633"/><stop offset="1" stop-color="#213d98"/></linearGradient><linearGradient id="accent" x1="360" x2="720" y1="220" y2="620" gradientUnits="userSpaceOnUse"><stop stop-color="#63b3ff"/><stop offset="1" stop-color="#31d084"/></linearGradient><filter id="softGlow" width="140%" height="140%" x="-20%" y="-20%"><feGaussianBlur result="blur" stdDeviation="20"/></filter></defs><rect width="1080" height="1080" x="0" y="0" fill="url(#bg)" rx="80"/><rect width="990" height="990" x="45" y="45" stroke="rgba(255,255,255,0.10)" stroke-width="4" rx="55"/><circle cx="540" cy="370" r="190" fill="rgba(255,255,255,0.06)"/><circle cx="540" cy="370" r="145" fill="#63b3ff" filter="url(#softGlow)" opacity=".12"/><path fill="url(#accent)" d="M540 220L690 280V430C690 545 628 640 540 688C452 640 390 545 390 430V280L540 220Z"/><path stroke="#F8F7F2" stroke-linecap="round" stroke-width="34" d="M470 378H610"/><path stroke="#F8F7F2" stroke-linecap="round" stroke-width="34" d="M540 308V448"/><text x="540" y="790" fill="#F5F4EF" font-family="Arial, Helvetica, sans-serif" font-size="74" font-weight="500" letter-spacing="-1" text-anchor="middle">STANDARD</text><text x="540" y="865" fill="#EAE7DD" font-family="Arial, Helvetica, sans-serif" font-size="48" font-weight="400" letter-spacing="4" text-anchor="middle">VERIFICATION BUNDLE</text></svg>