<svg xmlns="http://www.w3.org/2000/svg" width="1080" height="1080" fill="none" viewBox="0 0 1080 1080"><defs><linearGradient id="bg" x1="80" x2="1000" y1="80" y2="1000" gradientUnits="userSpaceOnUse"><stop stop-color="#13213c"/><stop offset="1" stop-color="#244f9f"/></linearGradient><linearGradient id="accent" x1="360" x2="720" y1="220" y2="620" gradientUnits="userSpaceOnUse"><stop stop-color="#7bc8ff"/><stop offset="1" stop-color="#2ee08c"/></linearGradient><filter id="softGlow" width="140%" height="140%" x="-20%" y="-20%"><feGaussianBlur result="blur" stdDeviation="20"/></filter></defs><rect width="1080" height="1080" x="0" y="0" fill="url(#bg)" rx="80"/><rect width="990" height="990" x="45" y="45" stroke="rgba(255,255,255,0.10)" stroke-width="4" rx="55"/><circle cx="540" cy="370" r="190" fill="rgba(255,255,255,0.06)"/><circle cx="540" cy="370" r="145" fill="#7bc8ff" filter="url(#softGlow)" opacity=".12"/><g><path fill="url(#accent)" d="M620 220C620 185 592 157 557 157H523C488 157 460 185 460 220V258L412 332C401 349 413 372 433 372H647C667 372 679 349 668 332L620 258V220Z"/><path stroke="#F8F7F2" stroke-linecap="round" stroke-width="28" d="M540 372V562"/><circle cx="540" cy="560" r="34" fill="#F8F7F2"/><path stroke="#F8F7F2" stroke-linecap="round" stroke-linejoin="round" stroke-width="28" d="M490 290L530 330L598 255"/></g><text x="540" y="790" fill="#F5F4EF" font-family="Arial, Helvetica, sans-serif" font-size="74" font-weight="500" letter-spacing="-1" text-anchor="middle">STICKY</text><text x="540" y="865" fill="#EAE7DD" font-family="Arial, Helvetica, sans-serif" font-size="48" font-weight="400" letter-spacing="4" text-anchor="middle">VERIFIED POST</text></svg>